<svg width="350" height="250" viewBox="0 0 350 250" xmlns="http://www.w3.org/2000/svg">
  <defs>
    <style>
      .workflow-text { font-family: Arial, sans-serif; font-size: 12px; fill: white; text-anchor: middle; }
      .workflow-node { fill: rgba(30,41,59,0.9); stroke: #06b6d4; stroke-width: 2; }
      .workflow-line { stroke: #06b6d4; stroke-width: 2; fill: none; }
      .workflow-icon { fill: #06b6d4; }
    </style>
  </defs>
  
  <!-- Background -->
  <rect width="350" height="250" fill="rgba(15,23,42,0.95)" rx="12"/>
  
  <!-- Chatbot Trigger -->
  <rect x="20" y="20" width="80" height="40" rx="20" class="workflow-node"/>
  <rect x="25" y="25" width="30" height="20" rx="4" fill="none" stroke="#f97316" stroke-width="2"/>
  <path d="M35 35 L40 30 L45 35" fill="none" stroke="#f97316" stroke-width="1.5"/>
  <text x="60" y="35" class="workflow-text">Chatbot</text>
  <text x="60" y="48" class="workflow-text">Trigger</text>
  
  <!-- Knowledge Base -->
  <rect x="180" y="20" width="80" height="40" rx="20" class="workflow-node"/>
  <g class="workflow-icon" transform="translate(190,30)">
    <rect x="0" y="0" width="20" height="15" rx="2" fill="none" stroke="#8b5cf6" stroke-width="1.5"/>
    <rect x="0" y="4" width="20" height="2" fill="#8b5cf6"/>
    <rect x="0" y="8" width="20" height="2" fill="#8b5cf6"/>
    <rect x="0" y="12" width="20" height="2" fill="#8b5cf6"/>
  </g>
  <text x="220" y="35" class="workflow-text">Knowledge</text>
  <text x="220" y="48" class="workflow-text">Base</text>
  
  <!-- AI Agent -->
  <rect x="100" y="80" width="80" height="40" rx="20" class="workflow-node"/>
  <g class="workflow-icon" transform="translate(115,90)">
    <rect x="0" y="0" width="20" height="15" rx="3" fill="none" stroke="#06b6d4" stroke-width="1.5"/>
    <circle cx="6" cy="6" r="1.5" fill="#06b6d4"/>
    <circle cx="14" cy="6" r="1.5" fill="#06b6d4"/>
    <path d="M7 10 L13 10" stroke="#06b6d4" stroke-width="1.5"/>
    <rect x="8" y="-2" width="4" height="3" rx="1" fill="#06b6d4"/>
  </g>
  <text x="140" y="95" class="workflow-text">AI Agent</text>
  
  <!-- Response Generator -->
  <rect x="100" y="140" width="80" height="40" rx="20" class="workflow-node"/>
  <g class="workflow-icon" transform="translate(120,150)">
    <path d="M10 0 L18 6 L15 8 L20 12 L15 16 L18 18 L10 24 L2 18 L5 16 L0 12 L5 8 L2 6 Z" fill="#06b6d4"/>
  </g>
  <text x="140" y="155" class="workflow-text">Response</text>
  <text x="140" y="168" class="workflow-text">Generator</text>
  
  <!-- Chatbot Reply -->
  <rect x="200" y="140" width="60" height="40" rx="20" class="workflow-node"/>
  <rect x="210" y="150" width="20" height="15" rx="4" fill="none" stroke="#8b5cf6" stroke-width="2"/>
  <path d="M225 157 L230 162 L235 157" fill="none" stroke="#8b5cf6" stroke-width="1.5"/>
  <text x="230" y="155" class="workflow-text">Chatbot</text>
  <text x="230" y="168" class="workflow-text">Reply</text>
  
  <!-- Connections -->
  <line x1="100" y1="40" x2="140" y2="80" class="workflow-line"/>
  <line x1="180" y1="40" x2="140" y2="80" class="workflow-line"/>
  <line x1="140" y1="120" x2="140" y2="140" class="workflow-line"/>
  <line x1="180" y1="160" x2="200" y2="160" class="workflow-line"/>
</svg>